<svg width="191" height="48" viewBox="0 0 191 48" fill="none" xmlns="http://www.w3.org/2000/svg">
<path d="M86.7699 17.6378H79.6659L78.5271 21H73.6736L80.5606 1.96566H85.9293L92.8164 21H87.9087L86.7699 17.6378ZM85.5768 14.0587L83.2179 7.09029L80.886 14.0587H85.5768ZM132.358 1.96566L127.396 21H121.783L118.746 8.47312L115.601 21H109.988L105.162 1.96566H110.124L112.862 15.8211L116.252 1.96566H121.349L124.603 15.8211L127.368 1.96566H132.358ZM150.572 5.68034V9.53059H156.781V13.1097H150.572V17.2853H157.594V21H145.935V1.96566H157.594V5.68034H150.572ZM188.343 1.96566V21H183.706V13.1639H176.494V21H171.857V1.96566H176.494V9.42213H183.706V1.96566H188.343ZM80.6691 43.1562L85.6582 30.1955H87.6646L81.7266 45H79.5845L73.6465 30.1955H75.68L80.6691 43.1562ZM103.632 36.8386C103.632 37.4893 103.614 37.9864 103.577 38.3298H91.2946C91.3488 39.4506 91.62 40.4086 92.108 41.204C92.5961 41.9993 93.2378 42.6049 94.0331 43.0206C94.8285 43.4183 95.6962 43.6172 96.6361 43.6172C97.8653 43.6172 98.8957 43.3189 99.7272 42.7224C100.577 42.1259 101.137 41.3215 101.408 40.3092H103.415C103.053 41.7553 102.276 42.9393 101.083 43.8612C99.9079 44.765 98.4257 45.2169 96.6361 45.2169C95.2443 45.2169 93.997 44.9096 92.8943 44.295C91.7917 43.6624 90.924 42.7766 90.2913 41.6378C89.6768 40.4809 89.3695 39.1342 89.3695 37.5978C89.3695 36.0613 89.6768 34.7146 90.2913 33.5577C90.9059 32.4008 91.7646 31.5151 92.8672 30.9005C93.9699 30.2859 95.2262 29.9786 96.6361 29.9786C98.0461 29.9786 99.2753 30.2859 100.324 30.9005C101.39 31.5151 102.204 32.3466 102.764 33.395C103.342 34.4254 103.632 35.5732 103.632 36.8386ZM101.707 36.7843C101.725 35.6817 101.499 34.7417 101.029 33.9644C100.577 33.1871 99.9531 32.5997 99.1578 32.202C98.3624 31.8043 97.4948 31.6055 96.5548 31.6055C95.1448 31.6055 93.9428 32.0574 92.9486 32.9612C91.9544 33.865 91.403 35.1394 91.2946 36.7843H101.707ZM114.046 29.9244C115.817 29.9244 117.263 30.4757 118.384 31.5783C119.505 32.6629 120.065 34.2446 120.065 36.3234V45H118.194V36.5403C118.194 34.9315 117.787 33.7023 116.974 32.8527C116.179 32.0031 115.085 31.5783 113.693 31.5783C112.265 31.5783 111.126 32.0303 110.277 32.9341C109.427 33.8379 109.002 35.1665 109.002 36.9199V45H107.104V30.1955H109.002V32.7172C109.472 31.8133 110.15 31.1264 111.036 30.6565C111.922 30.1684 112.925 29.9244 114.046 29.9244ZM126.73 31.7953V40.9871C126.73 41.8909 126.902 42.5145 127.245 42.858C127.589 43.2014 128.194 43.3731 129.062 43.3731H130.797V45H128.764C127.426 45 126.432 44.6927 125.781 44.0781C125.13 43.4454 124.805 42.4151 124.805 40.9871V31.7953H122.744V30.1955H124.805V26.4808H126.73V30.1955H130.797V31.7953H126.73ZM146.753 30.1955V45H144.855V42.397C144.421 43.3189 143.752 44.0239 142.848 44.5119C141.944 45 140.932 45.244 139.811 45.244C138.04 45.244 136.594 44.7017 135.473 43.6172C134.352 42.5145 133.792 40.9238 133.792 38.845V30.1955H135.663V38.6281C135.663 40.2369 136.06 41.4661 136.856 42.3157C137.669 43.1653 138.772 43.59 140.164 43.59C141.592 43.59 142.731 43.1381 143.58 42.2343C144.43 41.3305 144.855 40.0019 144.855 38.2485V30.1955H146.753ZM152.984 32.8256C153.4 31.9037 154.032 31.1897 154.882 30.6836C155.749 30.1774 156.807 29.9244 158.054 29.9244V31.9037H157.539C156.165 31.9037 155.063 32.2743 154.231 33.0154C153.4 33.7565 152.984 34.9948 152.984 36.7301V45H151.086V30.1955H152.984V32.8256ZM174.304 36.8386C174.304 37.4893 174.286 37.9864 174.25 38.3298H161.967C162.021 39.4506 162.292 40.4086 162.78 41.204C163.268 41.9993 163.91 42.6049 164.705 43.0206C165.501 43.4183 166.368 43.6172 167.308 43.6172C168.538 43.6172 169.568 43.3189 170.4 42.7224C171.249 42.1259 171.809 41.3215 172.081 40.3092H174.087C173.726 41.7553 172.948 42.9393 171.755 43.8612C170.58 44.765 169.098 45.2169 167.308 45.2169C165.917 45.2169 164.669 44.9096 163.567 44.295C162.464 43.6624 161.596 42.7766 160.964 41.6378C160.349 40.4809 160.042 39.1342 160.042 37.5978C160.042 36.0613 160.349 34.7146 160.964 33.5577C161.578 32.4008 162.437 31.5151 163.54 30.9005C164.642 30.2859 165.899 29.9786 167.308 29.9786C168.718 29.9786 169.948 30.2859 170.996 30.9005C172.063 31.5151 172.876 32.3466 173.436 33.395C174.015 34.4254 174.304 35.5732 174.304 36.8386ZM172.379 36.7843C172.397 35.6817 172.171 34.7417 171.701 33.9644C171.249 33.1871 170.625 32.5997 169.83 32.202C169.035 31.8043 168.167 31.6055 167.227 31.6055C165.817 31.6055 164.615 32.0574 163.621 32.9612C162.627 33.865 162.075 35.1394 161.967 36.7843H172.379ZM182.874 45.2169C181.175 45.2169 179.783 44.8283 178.698 44.051C177.632 43.2556 177.035 42.1801 176.909 40.8244H178.861C178.951 41.6559 179.34 42.3337 180.027 42.858C180.732 43.3641 181.672 43.6172 182.847 43.6172C183.877 43.6172 184.682 43.3731 185.26 42.8851C185.857 42.397 186.155 41.7915 186.155 41.0684C186.155 40.5623 185.992 40.1465 185.667 39.8211C185.341 39.4958 184.926 39.2427 184.42 39.0619C183.932 38.8631 183.263 38.6552 182.413 38.4383C181.31 38.1491 180.416 37.8599 179.729 37.5706C179.042 37.2814 178.454 36.8566 177.966 36.2963C177.496 35.7178 177.261 34.9496 177.261 33.9915C177.261 33.2685 177.478 32.5997 177.912 31.9851C178.346 31.3705 178.961 30.8824 179.756 30.5209C180.551 30.1594 181.455 29.9786 182.467 29.9786C184.058 29.9786 185.341 30.3853 186.318 31.1987C187.294 31.9941 187.818 33.0968 187.89 34.5067H185.992C185.938 33.639 185.595 32.9431 184.962 32.4189C184.347 31.8766 183.498 31.6055 182.413 31.6055C181.455 31.6055 180.678 31.8314 180.081 32.2833C179.485 32.7352 179.186 33.2956 179.186 33.9644C179.186 34.5429 179.358 35.0219 179.702 35.4015C180.063 35.763 180.506 36.0522 181.03 36.2691C181.554 36.468 182.259 36.6939 183.145 36.947C184.212 37.2362 185.061 37.5164 185.694 37.7876C186.327 38.0587 186.869 38.4564 187.321 38.9806C187.773 39.5048 188.008 40.2007 188.026 41.0684C188.026 41.8638 187.809 42.5778 187.375 43.2104C186.941 43.825 186.336 44.3131 185.558 44.6746C184.781 45.0362 183.886 45.2169 182.874 45.2169Z" fill="black"/>
<path fill-rule="evenodd" clip-rule="evenodd" d="M16.9161 0.75L0.605957 45.8277H16.6928L20.4673 34.6837H44.0134L47.788 45.8277H64.0545L47.7444 0.75H32.5877L40.0591 22.8208L32.2404 32.101L24.5115 22.8208L31.8971 0.75H16.9161Z" fill="#321CFF"/>
</svg>
