<svg width="156" height="151" viewBox="0 0 156 151" fill="none" xmlns="http://www.w3.org/2000/svg">
<path d="M17.9678 110.651H8.3874L6.79669 115.314H0.289221L9.65274 89.9353H16.7748L26.1383 115.314H19.5586L17.9678 110.651ZM16.3771 105.951L13.1957 96.5513L9.97812 105.951H16.3771ZM78.2873 89.7546L72.1775 115.314H64.5132L60.4279 98.2143L56.3065 115.314H48.6422L42.5324 89.7546H49.2568L52.5467 108.265L57.0296 89.7546H63.7901L68.2731 108.265L71.5991 89.7546H78.2873ZM102.719 94.6713V100.022H111.359V104.686H102.719V110.362H112.444V115.314H96.5365V89.7546H112.444V94.6713H102.719ZM153.047 89.7546V115.314H146.829V104.649H137.14V115.314H130.958V89.7546H137.14V99.6604H146.829V89.7546H153.047ZM10.0504 144.458L16.6663 127.575H19.4139L11.4604 147.314H8.56817L0.614594 127.575H3.36219L10.0504 144.458ZM31.37 145.471C33.1535 145.471 34.6478 145.025 35.8529 144.133C37.058 143.241 37.7811 142.036 38.0221 140.518H40.6974C40.3359 142.615 39.3356 144.314 37.6967 145.615C36.0578 146.917 33.985 147.568 31.4785 147.568C29.5985 147.568 27.9235 147.17 26.4533 146.374C25.0071 145.555 23.8744 144.386 23.0549 142.868C22.2354 141.325 21.8257 139.518 21.8257 137.445C21.8257 135.372 22.2354 133.576 23.0549 132.058C23.8744 130.516 25.0071 129.347 26.4533 128.551C27.9235 127.732 29.5985 127.322 31.4785 127.322C33.4066 127.322 35.0696 127.732 36.4675 128.551C37.8895 129.347 38.9621 130.419 39.6851 131.769C40.4323 133.119 40.8058 134.589 40.8058 136.179C40.8058 136.854 40.7576 137.469 40.6612 138.023H24.3202C24.3444 139.686 24.6818 141.084 25.3325 142.217C26.0074 143.326 26.875 144.145 27.9355 144.675C28.996 145.206 30.1408 145.471 31.37 145.471ZM31.4785 129.383C30.2011 129.383 29.0321 129.648 27.9717 130.178C26.9112 130.708 26.0435 131.528 25.3687 132.636C24.7179 133.721 24.3685 135.083 24.3202 136.722H38.2752C38.3716 135.107 38.1064 133.745 37.4798 132.636C36.8532 131.528 36.0096 130.708 34.9491 130.178C33.8886 129.648 32.7318 129.383 31.4785 129.383ZM55.2307 127.214C57.5204 127.214 59.3762 127.949 60.7982 129.419C62.2443 130.865 62.9674 132.998 62.9674 135.818V147.314H60.4728V135.999C60.4728 133.854 59.9306 132.215 58.846 131.082C57.7614 129.925 56.2791 129.347 54.3992 129.347C52.4229 129.347 50.8442 129.985 49.6632 131.263C48.5063 132.516 47.9279 134.372 47.9279 136.83V147.314H45.3611V127.575H47.9279V132.42C48.434 130.732 49.3499 129.443 50.6755 128.551C52.0011 127.659 53.5195 127.214 55.2307 127.214ZM77.2753 145.073V147.314H74.9254C73.0214 147.314 71.5994 146.869 70.6594 145.977C69.7194 145.061 69.2495 143.53 69.2495 141.385V129.78H66.2488V127.575H69.2495V122.586H71.8163V127.575H77.2392V129.78H71.8163V141.422C71.8163 142.819 72.0694 143.784 72.5755 144.314C73.0816 144.82 73.9734 145.073 75.2508 145.073H77.2753ZM98.4709 127.575V147.314H95.9402V142.434C95.4341 144.145 94.5182 145.447 93.1926 146.338C91.867 147.23 90.3486 147.676 88.6374 147.676C86.3236 147.676 84.4437 146.953 82.9976 145.507C81.5756 144.037 80.8646 141.892 80.8646 139.072V127.575H83.3953V138.855C83.3953 141.024 83.9376 142.687 85.0222 143.844C86.1067 144.977 87.589 145.543 89.4689 145.543C91.4453 145.543 93.0119 144.916 94.1688 143.663C95.3497 142.386 95.9402 140.518 95.9402 138.059V127.575H98.4709ZM106.57 131.66C107.148 130.238 108.076 129.142 109.354 128.37C110.631 127.599 112.186 127.214 114.017 127.214V129.961H113.186C111.282 129.961 109.703 130.479 108.45 131.516C107.197 132.528 106.57 134.191 106.57 136.505V147.314H104.003V127.575H106.57V131.66ZM125.988 145.471C127.772 145.471 129.266 145.025 130.471 144.133C131.676 143.241 132.399 142.036 132.64 140.518H135.316C134.954 142.615 133.954 144.314 132.315 145.615C130.676 146.917 128.603 147.568 126.097 147.568C124.217 147.568 122.542 147.17 121.071 146.374C119.625 145.555 118.493 144.386 117.673 142.868C116.854 141.325 116.444 139.518 116.444 137.445C116.444 135.372 116.854 133.576 117.673 132.058C118.493 130.516 119.625 129.347 121.071 128.551C122.542 127.732 124.217 127.322 126.097 127.322C128.025 127.322 129.688 127.732 131.086 128.551C132.508 129.347 133.58 130.419 134.303 131.769C135.05 133.119 135.424 134.589 135.424 136.179C135.424 136.854 135.376 137.469 135.279 138.023H118.938C118.962 139.686 119.3 141.084 119.951 142.217C120.626 143.326 121.493 144.145 122.554 144.675C123.614 145.206 124.759 145.471 125.988 145.471ZM126.097 129.383C124.819 129.383 123.65 129.648 122.59 130.178C121.529 130.708 120.662 131.528 119.987 132.636C119.336 133.721 118.987 135.083 118.938 136.722H132.893C132.99 135.107 132.725 133.745 132.098 132.636C131.471 131.528 130.628 130.708 129.567 130.178C128.507 129.648 127.35 129.383 126.097 129.383ZM145.944 127.322C148.089 127.322 149.813 127.888 151.114 129.021C152.416 130.154 153.211 131.684 153.5 133.613H151.078C150.933 132.335 150.403 131.287 149.487 130.467C148.596 129.624 147.39 129.202 145.872 129.202C144.571 129.202 143.546 129.527 142.799 130.178C142.076 130.805 141.715 131.648 141.715 132.709C141.715 133.504 141.943 134.143 142.401 134.625C142.883 135.107 143.474 135.481 144.173 135.746C144.872 135.987 145.812 136.24 146.993 136.505C148.439 136.842 149.596 137.192 150.463 137.553C151.355 137.891 152.114 138.433 152.741 139.18C153.368 139.927 153.681 140.94 153.681 142.217C153.681 143.784 153.091 145.073 151.91 146.085C150.753 147.073 149.21 147.568 147.282 147.568C145.016 147.568 143.161 147.013 141.715 145.905C140.268 144.772 139.413 143.229 139.148 141.277H141.606C141.751 142.578 142.317 143.639 143.305 144.458C144.293 145.278 145.631 145.688 147.318 145.688C148.571 145.688 149.548 145.362 150.247 144.711C150.945 144.061 151.295 143.217 151.295 142.181C151.295 141.337 151.054 140.662 150.572 140.156C150.09 139.65 149.487 139.277 148.764 139.036C148.065 138.77 147.101 138.493 145.872 138.204C144.45 137.867 143.305 137.529 142.438 137.192C141.594 136.854 140.871 136.336 140.268 135.637C139.666 134.914 139.365 133.938 139.365 132.709C139.365 131.094 139.955 129.792 141.136 128.804C142.317 127.816 143.92 127.322 145.944 127.322Z" fill="#E5E9F1"/>
<path fill-rule="evenodd" clip-rule="evenodd" d="M57.9012 0L36.1543 60.1036H57.6034L62.6361 45.245H94.0309L99.0636 60.1036H120.752L99.0055 0H78.7966L88.7585 29.4278L78.3335 41.8013L68.0284 29.4278L77.8758 0H57.9012Z" fill="#321CFF"/>
</svg>
